<svg id="visual" viewBox="0 0 960 540" width="960" height="540" xmlns="http://www.w3.org/2000/svg" xmlns:xlink="http://www.w3.org/1999/xlink" version="1.1"><rect width="960" height="540" fill="#001829"></rect><g><g transform="translate(884 340)"><path d="M0 -124L107.4 -62L107.4 62L0 124L-107.4 62L-107.4 -62Z" fill="none" stroke="#297EA6" stroke-width="2"></path></g><g transform="translate(564 67)"><path d="M0 -111L96.1 -55.5L96.1 55.5L0 111L-96.1 55.5L-96.1 -55.5Z" fill="none" stroke="#297EA6" stroke-width="2"></path></g><g transform="translate(939 92)"><path d="M0 -120L103.9 -60L103.9 60L0 120L-103.9 60L-103.9 -60Z" fill="none" stroke="#297EA6" stroke-width="2"></path></g><g transform="translate(47 281)"><path d="M0 -105L90.9 -52.5L90.9 52.5L0 105L-90.9 52.5L-90.9 -52.5Z" stroke="#297EA6" fill="none" stroke-width="2"></path></g><g transform="translate(337 237)"><path d="M0 -106L91.8 -53L91.8 53L0 106L-91.8 53L-91.8 -53Z" stroke="#297EA6" fill="none" stroke-width="2"></path></g><g transform="translate(216 482)"><path d="M0 -103L89.2 -51.5L89.2 51.5L0 103L-89.2 51.5L-89.2 -51.5Z" stroke="#297EA6" fill="none" stroke-width="2"></path></g></g></svg>